<svg xmlns="http://www.w3.org/2000/svg" xmlns:xlink="http://www.w3.org/1999/xlink" viewBox="0 0 188.6 168.5"><path fill="#110080" d="M152.4,97c-1.5,0-2.8-1.2-2.8-2.8v-46c0-1.5,1.2-2.8,2.8-2.8l0,0h7.4l-43.7-32.4L95.5,28.4 c-1.2,0.9-3,0.7-3.9-0.6c-0.4-0.5-0.6-1.1-0.5-1.7V12.5h-8.8v24.3c0,1.5-1.2,2.8-2.8,2.8c-1.5,0-2.8-1.2-2.8-2.8V9.7 c0-1.5,1.2-2.8,2.8-2.8h14.3c1.5,0,2.7,1.3,2.7,2.8v11l17.9-13.2c1-0.7,2.3-0.7,3.3,0L169.9,46c1.2,0.9,1.5,2.6,0.6,3.9 c-0.5,0.7-1.4,1.2-2.3,1.1h-13v43.2C155.2,95.7,154,97,152.4,97"/><path fill="#21FFDF" d="M45.9,62.5h28.9c1.5,0,2.8-1.2,2.8-2.8c0-1.5-1.2-2.8-2.8-2.8H45.9c-1.5,0-2.8,1.2-2.8,2.8 C43.2,61.3,44.4,62.5,45.9,62.5L45.9,62.5"/><path fill="#21FFDF" d="M74.8,91.4H45.9c-1.5,0-2.8,1.2-2.8,2.8c0,1.5,1.2,2.8,2.8,2.8l0,0h28.9c1.5,0,2.8-1.2,2.8-2.8 C77.6,92.7,76.3,91.4,74.8,91.4"/><path fill="#21FFDF" d="M36.9,57c-1.5,0-2.8,1.2-2.8,2.8c0,1.5,1.2,2.8,2.8,2.8c1.5,0,2.8-1.2,2.8-2.8l0,0C39.7,58.2,38.4,57,36.9,57"/><path fill="#4175F7" d="M80.8,94.2c0,1.5,1.2,2.8,2.8,2.8c1.5,0,2.8-1.2,2.8-2.8s-1.2-2.8-2.8-2.8c0,0,0,0,0,0 C82,91.4,80.8,92.7,80.8,94.2"/><path fill="#4175F7" d="M65.1,71.2c0-1.5-1.2-2.8-2.8-2.8H27.2c-1.5,0-2.8,1.2-2.8,2.8c0,1.5,1.2,2.8,2.8,2.8h35.2 C63.9,74,65.1,72.8,65.1,71.2"/><path fill="#4175F7" d="M69.7,80H52.9c-1.5,0-2.8,1.2-2.8,2.8c0,1.5,1.2,2.8,2.8,2.8h16.8c1.5,0,2.8-1.2,2.8-2.8 C72.5,81.2,71.2,80,69.7,80"/><path fill="#4175F7" d="M134.6,71.8l-14.8-8l-11-17.1c-0.5-0.8-1.4-1.3-2.3-1.3H66.7c-1.5-0.1-2.8,1.1-2.9,2.6s1.1,2.8,2.6,2.9 c0.1,0,0.2,0,0.3,0H105l10.6,16.5c0.2,0.4,0.6,0.7,1,0.9l14,7.5v15.6h-8.9c0-0.1-0.1-0.3-0.1-0.4s-0.1-0.2-0.1-0.4 s-0.2-0.5-0.3-0.7s-0.1-0.2-0.1-0.3c-0.1-0.3-0.3-0.6-0.4-0.9l-0.1-0.2c-0.1-0.2-0.3-0.5-0.4-0.7l-0.2-0.3 c-0.1-0.2-0.3-0.4-0.4-0.5c-0.1-0.1-0.2-0.2-0.3-0.3c-0.1-0.2-0.3-0.3-0.4-0.5l-0.3-0.3c-0.2-0.2-0.3-0.3-0.5-0.4 c-0.1-0.1-0.2-0.2-0.3-0.2c-0.2-0.2-0.4-0.3-0.6-0.5l-0.2-0.1c-0.3-0.2-0.6-0.4-0.9-0.5l-0.3-0.1c-0.2-0.1-0.4-0.2-0.7-0.3 l-0.3-0.1l-0.6-0.2l-0.4-0.1l-0.7-0.2l-0.4-0.1c-0.2-0.1-0.5-0.1-0.7-0.1l-0.3-0.1c-0.4,0-0.7,0-1.1,0s-0.7,0-1.1,0l-0.3,0.1 c-0.2,0-0.5,0.1-0.7,0.1L108,83l-0.7,0.2l-0.4,0.1l-0.6,0.2l-0.3,0.1c-0.2,0.1-0.4,0.2-0.7,0.3c-0.1,0-0.2,0.1-0.3,0.1 c-0.3,0.2-0.6,0.3-0.9,0.5l-0.2,0.1c-0.2,0.2-0.4,0.3-0.6,0.5l-0.3,0.2c-0.2,0.1-0.3,0.3-0.5,0.4s-0.2,0.2-0.3,0.3 c-0.1,0.1-0.3,0.3-0.4,0.5l-0.3,0.3c-0.1,0.2-0.3,0.3-0.4,0.5l-0.2,0.3c-0.2,0.2-0.3,0.5-0.4,0.7l-0.1,0.2 c-0.2,0.3-0.3,0.6-0.4,0.9c0,0.1-0.1,0.2-0.1,0.3s-0.2,0.4-0.3,0.7L99.5,91c0,0.1-0.1,0.3-0.1,0.4h-6.5c-1.5-0.1-2.8,1.1-2.9,2.6 s1.1,2.8,2.6,2.9c0.1,0,0.2,0,0.3,0h6.5c1.5,6.1,7.7,9.9,13.8,8.4c4.1-1,7.4-4.2,8.4-8.4h11.7c1.5,0,2.8-1.2,2.8-2.7c0,0,0,0,0,0 v-20C136,73.2,135.5,72.3,134.6,71.8z M110.5,100.1c-3.3,0-5.9-2.7-5.9-5.9l0,0c0-3.3,2.7-5.9,5.9-5.9s5.9,2.7,5.9,5.9 S113.8,100.1,110.5,100.1z"/><path fill="#110080" d="M152.8,123.6c-1.5-0.7-3.2,0-3.9,1.4l-12.6,27.3l-13.8-27.7c-0.7-1.5-2.5-2.1-3.9-1.3c-1.4,0.7-2,2.4-1.4,3.8 l16.4,33c0.5,1,1.5,1.7,2.6,1.7h0.2c1.1,0,2.2-0.7,2.6-1.7l15.1-32.6C154.9,126,154.3,124.3,152.8,123.6z"/><path fill="#110080" d="M10,123.4c-1.7,0-3.1,1.4-3.1,3.1s1.4,3.1,3.1,3.1c1.7,0,3.1-1.4,3.1-3.1S11.7,123.4,10,123.4 C10,123.4,10,123.4,10,123.4"/><path fill="#110080" d="M10,134.6c-1.6,0-2.9,1.3-2.9,2.9c0,0,0,0,0,0v21.2c-0.1,1.6,1.1,3,2.7,3.1c1.6,0.1,3-1.1,3.1-2.7 c0-0.1,0-0.2,0-0.3v-21.2C12.9,135.9,11.6,134.6,10,134.6C10,134.6,10,134.6,10,134.6"/><path fill="#110080" d="M99.8,124.1c-10-4-21.3,0.9-25.3,10.9c-4,10,0.9,21.3,10.9,25.3s21.3-0.9,25.3-10.9c2.9-7.3,1.1-15.6-4.5-21.1 C104.4,126.5,102.2,125.1,99.8,124.1 M102,151.9c-2.6,2.6-6,4.1-9.7,4.3c-3.6-0.1-7.1-1.7-9.7-4.3c-5.2-5.4-5.2-13.9,0-19.3 c2.6-2.6,6-4.1,9.7-4.3c3.7,0.1,7.1,1.7,9.7,4.3C107.2,138,107.2,146.5,102,151.9"/><path fill="#110080" d="M61.7,123.3c-1.4-0.8-3.1-0.4-4,0.9l-13.9,22.4l-13.9-22.3c-0.5-0.9-1.5-1.5-2.6-1.5c-0.1,0-0.2,0-0.3,0 c-0.1,0-0.2,0-0.3,0c-0.1,0-0.2,0-0.3,0.1c-0.1,0-0.2,0.1-0.3,0.1l-0.3,0.2c-0.1,0-0.1,0.1-0.2,0.1l0,0c-0.1,0.1-0.3,0.2-0.4,0.3 c-0.1,0.1-0.2,0.2-0.2,0.3l-0.2,0.2l-0.1,0.1c-0.3,0.5-0.4,1-0.4,1.5v32.9c-0.1,1.6,1.1,3,2.7,3.1c1.6,0.1,3-1.1,3.1-2.7 c0-0.1,0-0.2,0-0.3v-23.2l11.2,17.8c0,0.1,0.1,0.1,0.2,0.2c0.2,0.3,0.5,0.6,0.8,0.8c1.3,0.8,3,0.4,3.8-0.9l11.1-17.5v22.8 c-0.1,1.6,1.1,3,2.7,3.1c1.6,0.1,3-1.1,3.1-2.7c0-0.1,0-0.2,0-0.3V126C63.2,124.9,62.7,123.9,61.7,123.3z"/><path fill="#110080" d="M185.6,155.4h-17.2v-10.5h16.1c1.5,0.1,2.8-1.1,2.9-2.6c0.1-1.5-1.1-2.8-2.6-2.9c-0.1,0-0.2,0-0.3,0h-16.1 v-10.2h17.1c1.6,0,2.9-1.3,2.9-2.9c0-1.6-1.3-2.9-2.9-2.9h-20.1c-1.6,0-2.9,1.3-2.9,2.9v31.9c0,1.6,1.3,2.9,2.9,2.9c0,0,0,0,0,0 h20.1c1.6,0.1,3-1.1,3.1-2.7c0.1-1.6-1.1-3-2.7-3.1C185.8,155.3,185.7,155.3,185.6,155.4"/></svg>